<?xml version="1.0" encoding="UTF-8" standalone="no"?>
<!-- Created with Inkscape (http://www.inkscape.org/) -->

<svg
   width="128mm"
   height="128mm"
   viewBox="0 0 128 128"
   version="1.1"
   id="svg1"
   inkscape:version="1.4.3 (0d15f75, 2025-12-25)"
   sodipodi:docname="favicon.svg"
   inkscape:export-filename="logo.png"
   inkscape:export-xdpi="381"
   inkscape:export-ydpi="381"
   xmlns:inkscape="http://www.inkscape.org/namespaces/inkscape"
   xmlns:sodipodi="http://sodipodi.sourceforge.net/DTD/sodipodi-0.dtd"
   xmlns="http://www.w3.org/2000/svg"
   xmlns:svg="http://www.w3.org/2000/svg">
  <sodipodi:namedview
     id="namedview1"
     pagecolor="#ffffff"
     bordercolor="#000000"
     borderopacity="0.25"
     inkscape:showpageshadow="2"
     inkscape:pageopacity="0.0"
     inkscape:pagecheckerboard="0"
     inkscape:deskcolor="#d1d1d1"
     inkscape:document-units="mm"
     inkscape:zoom="0.39180893"
     inkscape:cx="197.80049"
     inkscape:cy="282.02522"
     inkscape:window-width="1248"
     inkscape:window-height="828"
     inkscape:window-x="222"
     inkscape:window-y="38"
     inkscape:window-maximized="0"
     inkscape:current-layer="layer1" />
  <defs
     id="defs1">
    <clipPath
       clipPathUnits="userSpaceOnUse"
       id="clipPath25">
      <rect
         style="fill:#ff0000;stroke:none;stroke-width:3;stroke-linecap:square;stroke-linejoin:miter;paint-order:stroke markers fill;stop-color:#000000"
         id="rect25-8"
         width="78"
         height="45.033199"
         x="763.61322"
         y="452.82422" />
    </clipPath>
    <linearGradient
       id="linearGradient8"
       inkscape:swatch="gradient">
      <stop
         style="stop-color:#ffffff;stop-opacity:1;"
         offset="0"
         id="stop8" />
      <stop
         style="stop-color:#ffffff;stop-opacity:0;"
         offset="1"
         id="stop9" />
    </linearGradient>
    <inkscape:path-effect
       effect="mirror_symmetry"
       start_point="42.923643,130.56721"
       end_point="170.92364,130.56721"
       center_point="106.92364,130.56721"
       id="path-effect27"
       is_visible="true"
       lpeversion="1.2"
       lpesatellites=""
       mode="horizontal"
       discard_orig_path="false"
       fuse_paths="false"
       oposite_fuse="false"
       split_items="false"
       split_open="false"
       link_styles="false" />
    <inkscape:path-effect
       effect="mirror_symmetry"
       start_point="106.92383,66.567031"
       end_point="106.92383,194.56703"
       center_point="106.92383,130.56703"
       id="path-effect24"
       is_visible="true"
       lpeversion="1.2"
       lpesatellites=""
       mode="horizontal"
       discard_orig_path="false"
       fuse_paths="false"
       oposite_fuse="false"
       split_items="false"
       split_open="false"
       link_styles="false" />
    <inkscape:path-effect
       effect="mirror_symmetry"
       start_point="106.92383,66.567031"
       end_point="106.92383,194.56703"
       center_point="106.92383,130.56703"
       id="path-effect21"
       is_visible="true"
       lpeversion="1.2"
       lpesatellites=""
       mode="horizontal"
       discard_orig_path="false"
       fuse_paths="false"
       oposite_fuse="false"
       split_items="false"
       split_open="false"
       link_styles="false" />
    <inkscape:path-effect
       effect="mirror_symmetry"
       start_point="42.923643,130.56721"
       end_point="170.92364,130.56721"
       center_point="106.92364,130.56721"
       id="path-effect17"
       is_visible="true"
       lpeversion="1.2"
       lpesatellites=""
       mode="horizontal"
       discard_orig_path="false"
       fuse_paths="false"
       oposite_fuse="false"
       split_items="false"
       split_open="false"
       link_styles="false" />
    <inkscape:path-effect
       effect="mirror_symmetry"
       start_point="106.92383,66.567031"
       end_point="106.92383,194.56703"
       center_point="106.92383,130.56703"
       id="path-effect22"
       is_visible="true"
       lpeversion="1.2"
       lpesatellites=""
       mode="horizontal"
       discard_orig_path="false"
       fuse_paths="false"
       oposite_fuse="false"
       split_items="false"
       split_open="false"
       link_styles="false" />
    <inkscape:path-effect
       effect="mirror_symmetry"
       start_point="106.92383,67.586591"
       end_point="106.92383,195.58659"
       center_point="106.92383,131.58659"
       id="path-effect20"
       is_visible="true"
       lpeversion="1.2"
       lpesatellites=""
       mode="horizontal"
       discard_orig_path="false"
       fuse_paths="false"
       oposite_fuse="false"
       split_items="false"
       split_open="false"
       link_styles="false" />
    <inkscape:path-effect
       effect="copy_rotate"
       starting_point="0,0"
       origin="0,128"
       id="path-effect18"
       is_visible="true"
       lpeversion="1.2"
       lpesatellites=""
       method="normal"
       num_copies="2"
       starting_angle="0"
       rotation_angle="90"
       gap="-0.01"
       copies_to_360="true"
       mirror_copies="false"
       split_items="false"
       link_styles="false" />
    <inkscape:path-effect
       effect="transform_2pts"
       start="97.37045,113.3585"
       end="92.844986,107.01673"
       id="path-effect14"
       is_visible="true"
       lpeversion="1"
       first_knot="1"
       last_knot="6"
       helper_size="3"
       stretch="1"
       offset="0"
       elastic="false"
       from_original_width="false"
       flip_vertical="false"
       flip_horizontal="false"
       lock_length="false"
       lock_angle="false" />
    <inkscape:path-effect
       effect="transform_2pts"
       start="97.37045,113.3585"
       end="92.844986,107.01673"
       id="path-effect13"
       is_visible="true"
       lpeversion="1"
       first_knot="1"
       last_knot="6"
       helper_size="3"
       stretch="1"
       offset="0"
       elastic="false"
       from_original_width="false"
       flip_vertical="false"
       flip_horizontal="false"
       lock_length="false"
       lock_angle="false" />
    <inkscape:path-effect
       effect="perspective-envelope"
       up_left_point="92.844986,106.91359"
       up_right_point="121.00267,106.91359"
       down_left_point="92.844986,116.77813"
       down_right_point="121.00267,116.77813"
       id="path-effect12"
       is_visible="true"
       lpeversion="1"
       deform_type="perspective"
       horizontal_mirror="false"
       vertical_mirror="false"
       overflow_perspective="false" />
    <inkscape:path-effect
       effect="mirror_symmetry"
       start_point="42.923642,130.56721"
       end_point="170.92364,130.56721"
       center_point="106.92364,130.56721"
       id="path-effect11"
       is_visible="true"
       lpeversion="1.2"
       lpesatellites=""
       mode="horizontal"
       discard_orig_path="false"
       fuse_paths="false"
       oposite_fuse="false"
       split_items="false"
       split_open="false"
       link_styles="false" />
    <inkscape:path-effect
       effect="clone_original"
       linkeditem=""
       id="path-effect10"
       is_visible="true"
       lpeversion="1"
       method="originald"
       attributes=""
       css_properties=""
       allow_transforms="true" />
    <inkscape:path-effect
       effect="mirror_symmetry"
       start_point="43.943121,130.5673"
       end_point="171.94312,130.5673"
       center_point="107.94312,130.5673"
       id="path-effect9"
       is_visible="true"
       lpeversion="1.2"
       lpesatellites=""
       mode="horizontal"
       discard_orig_path="false"
       fuse_paths="false"
       oposite_fuse="false"
       split_items="false"
       split_open="false"
       link_styles="false" />
  </defs>
  <path
     id="path27"
     style="display:inline;baseline-shift:baseline;overflow:visible;opacity:1;fill:#ffffff;stroke:none;stroke-width:2.02008299;stroke-linecap:round;stroke-dasharray:none;stroke-dashoffset:9.29764;stroke-opacity:1;enable-background:accumulate;stop-color:#000000;stop-opacity:1;fill-rule:nonzero;fill-opacity:1"
     inkscape:label="填充"
     d="M 60.406386 80.980226 C 59.08038 80.980426 57.808847 81.507672 56.871319 82.4454 C 54.919201 84.397935 54.919201 87.562969 56.871319 89.515504 L 75.622366 108.26681 C 70.416844 114.97277 67.312634 123.38479 67.312634 132.49829 C 67.312634 141.61198 70.417171 150.0231 75.622888 156.72873 L 56.871319 175.48056 C 54.919203 177.43309 54.919203 180.59813 56.871319 182.55066 C 58.823854 184.50278 61.988919 184.50278 63.941454 182.55066 L 82.693024 163.79884 C 89.398657 169.00455 97.810184 172.10915 106.92387 172.10915 C 116.03737 172.10915 124.44876 169.00488 131.15472 163.79936 L 149.90629 182.55066 C 151.85882 184.50278 155.02389 184.50278 156.97642 182.55066 C 158.92854 180.59813 158.92854 177.43309 156.97642 175.48056 L 138.7661 157.27002 C 130.5087 149.01262 125.3294 140.96266 125.3294 132.49464 C 125.3294 124.02662 130.23806 116.25411 138.36003 108.13214 C 144.56553 101.92664 156.97642 89.515504 156.97642 89.515504 C 158.92854 87.562969 158.92854 84.397935 156.97642 82.4454 C 156.03889 81.507674 154.76735 80.980428 153.44135 80.980226 C 152.11534 80.980425 150.84382 81.507672 149.90629 82.4454 L 131.15576 101.19618 C 124.44969 95.989945 116.03768 92.88483 106.92387 92.88483 C 97.809872 92.88483 89.398247 95.989754 82.692502 101.19618 L 63.941454 82.4454 C 63.003926 81.507672 61.732392 80.980426 60.406386 80.980226 z M 106.90456 111.65858 C 110.56193 111.65858 113.91646 112.95453 116.53426 115.11247 C 113.91646 117.27041 110.56193 118.56635 106.90456 118.56635 C 103.24719 118.56635 99.892659 117.27039 97.274852 115.11247 C 99.892651 112.95457 103.24722 111.65858 106.90456 111.65858 z M 89.535073 122.87366 C 91.694417 125.48484 92.996548 128.84687 92.996548 132.51343 C 92.996548 136.17105 91.7007 139.52636 89.542902 142.14433 C 87.385125 139.52632 86.089257 136.17102 86.089257 132.51343 C 86.089257 128.8558 87.385214 125.50124 89.535073 122.87366 z M 106.90456 146.42241 C 110.56193 146.42241 113.91646 147.71834 116.53426 149.87629 C 113.91646 152.03423 110.56193 153.3307 106.90456 153.3307 C 103.24722 153.3307 99.892651 152.03419 97.274852 149.87629 C 99.892659 147.71836 103.24719 146.42241 106.90456 146.42241 z "
     transform="matrix(0.99009269,0,0,0.99002398,-41.864314,-67.172642)" />
  <g
     inkscape:label="图标"
     inkscape:groupmode="layer"
     id="layer1"
     transform="translate(-43.943121,-66.567302)"
     style="display:inline">
    <path
       id="path3"
       style="baseline-shift:baseline;display:inline;overflow:visible;opacity:1;fill:none;stroke:#000000;stroke-width:5.05020748;stroke-linecap:round;stroke-dasharray:none;stroke-dashoffset:9.29764;stroke-opacity:1;enable-background:accumulate;stop-color:#000000;stop-opacity:1"
       d="m 106.92383,172.10937 c 9.1135,0 17.52507,-3.10446 24.23103,-8.30998 l 18.75139,18.75139 c 1.95253,1.95212 5.11778,1.95212 7.07031,0 1.95212,-1.95253 1.95212,-5.11778 0,-7.07031 l -18.21023,-18.21023 c -8.2574,-8.2574 -13.43668,-16.30769 -13.43668,-24.77571 0,-8.46802 4.90844,-16.24043 13.03041,-24.3624 6.2055,-6.2055 18.6165,-18.616505 18.6165,-18.616505 1.95212,-1.952535 1.95212,-5.117778 0,-7.070313 -0.93753,-0.937726 -2.20915,-1.464641 -3.53515,-1.464843 -1.32601,1.99e-4 -2.59763,0.527115 -3.53516,1.464843 l -18.75071,18.750708 c -6.70607,-5.206241 -15.1179,-8.311254 -24.23171,-8.311254 -9.113998,0 -17.525652,3.105142 -24.231397,8.311574 L 63.941406,82.445312 c -0.937528,-0.937728 -2.20915,-1.464643 -3.535156,-1.464843 -1.326006,2e-4 -2.597628,0.527115 -3.535156,1.464843 -1.952118,1.952535 -1.952118,5.117778 0,7.070313 l 18.75139,18.751385 c -5.205522,6.70596 -8.309984,15.11754 -8.309984,24.23104 0,9.11369 3.104591,17.52508 8.310308,24.23071 l -18.751714,18.75171 c -1.952116,1.95253 -1.952116,5.11778 0,7.07031 1.952535,1.95212 5.117777,1.95212 7.070312,0 L 82.69312,163.79907 c 6.705633,5.20571 15.117024,8.3103 24.23071,8.3103 z"
       sodipodi:nodetypes="sccccszscscccscccsccscccccs"
       transform="matrix(0.99009269,0,0,0.99002398,2.0788066,-0.60533956)"
       inkscape:label="外框" />
    <path
       id="path9"
       style="fill:none;stroke:#000000;stroke-width:4;stroke-linecap:round;stroke-dashoffset:9.29764;stroke-dasharray:none"
       d="m 97.37045,113.3585 c 2.591864,-2.13637 5.91327,-3.41948 9.53437,-3.41948 3.62114,0 6.94259,1.28314 9.53446,3.41955 m 4.56339,-6.44498 c -2.09694,5.7551 -7.61749,9.86454 -14.09785,9.86454 -6.44158,0 -11.934798,-4.06041 -14.059834,-9.7614 m 4.525464,40.75919 c 2.591864,2.13637 5.91327,3.41948 9.53437,3.41948 3.62114,0 6.94259,-1.28314 9.53446,-3.41955 m 4.56339,6.44498 c -2.09694,-5.7551 -7.61749,-9.86454 -14.09785,-9.86454 -6.44158,0 -11.934798,4.06041 -14.059834,9.7614"
       transform="translate(1.0194788,8.983425e-5)"
       inkscape:original-d="m 97.37045,113.3585 c 2.591864,-2.13637 5.91327,-3.41948 9.53437,-3.41948 3.62114,0 6.94259,1.28314 9.53446,3.41955 m 4.56339,-6.44498 c -2.09694,5.7551 -7.61749,9.86454 -14.09785,9.86454 -6.44158,0 -11.934798,-4.06041 -14.059834,-9.7614"
       inkscape:path-effect="#path-effect11"
       inkscape:label="上下洞" />
    <path
       id="path20"
       style="fill:none;stroke:#000000;stroke-width:4;stroke-linecap:round;stroke-dashoffset:9.29764;stroke-dasharray:none"
       d="m 97.37045,113.3585 c 2.591864,-2.13637 5.91327,-3.41948 9.53437,-3.41948 3.62114,0 6.94259,1.28314 9.53446,3.41955 m 4.56339,-6.44498 c -2.09694,5.7551 -7.61749,9.86454 -14.09785,9.86454 -6.44158,0 -11.934798,-4.06041 -14.059834,-9.7614 m 23.632224,6.34177 c -2.59187,-2.13637 -5.91327,-3.41948 -9.53437,-3.41948 -3.62114,0 -6.94259,1.28314 -9.534464,3.41955 m -4.56339,-6.44498 c 2.09694,5.7551 7.617494,9.86454 14.097854,9.86454 6.44158,0 11.93479,-4.06041 14.05983,-9.7614"
       transform="rotate(-90,107.43361,130.05752)"
       inkscape:original-d="m 97.37045,113.3585 c 2.591864,-2.13637 5.91327,-3.41948 9.53437,-3.41948 3.62114,0 6.94259,1.28314 9.53446,3.41955 m 4.56339,-6.44498 c -2.09694,5.7551 -7.61749,9.86454 -14.09785,9.86454 -6.44158,0 -11.934798,-4.06041 -14.059834,-9.7614"
       inkscape:path-effect="#path-effect22"
       inkscape:label="左洞" />
  </g>
</svg>
